<?xml version="1.0" encoding="us-ascii" standalone="no"?><svg xmlns="http://www.w3.org/2000/svg" xmlns:xlink="http://www.w3.org/1999/xlink" contentStyleType="text/css" height="1629px" preserveAspectRatio="none" style="width:884px;height:1629px;background:#FFFFFF;" version="1.1" viewBox="0 0 884 1629" width="884px" zoomAndPan="magnify"><defs/><g><rect fill="#DFE2E5" height="370.416" style="stroke:#181818;stroke-width:1.0;" width="10" x="45.5" y="91.4883"/><rect fill="#DFE2E5" height="843.4531" style="stroke:#181818;stroke-width:1.0;" width="10" x="45.5" y="490.8594"/><rect fill="#DFE2E5" height="88.6211" style="stroke:#181818;stroke-width:1.0;" width="10" x="45.5" y="1442.2441"/><rect fill="#DFE2E5" height="305.7949" style="stroke:#181818;stroke-width:1.0;" width="10" x="335.5" y="156.1094"/><rect fill="#DFE2E5" height="204.5527" style="stroke:#181818;stroke-width:1.0;" width="10" x="335.5" y="490.8594"/><rect fill="#DFE2E5" height="372.416" style="stroke:#181818;stroke-width:1.0;" width="10" x="335.5" y="961.8965"/><rect fill="#DFE2E5" height="88.6211" style="stroke:#181818;stroke-width:1.0;" width="10" x="335.5" y="1442.2441"/><rect fill="#DFE2E5" height="71.6211" style="stroke:#181818;stroke-width:1.0;" width="10" x="616.5" y="276.3516"/><rect fill="#DFE2E5" height="30" style="stroke:#181818;stroke-width:1.0;" width="10" x="616.5" y="544.4805"/><rect fill="#DFE2E5" height="106.9316" style="stroke:#181818;stroke-width:1.0;" width="10" x="616.5" y="810.3438"/><rect fill="#DFE2E5" height="113.9316" style="stroke:#181818;stroke-width:1.0;" width="10" x="616.5" y="1106.4492"/><rect fill="#DFE2E5" height="30" style="stroke:#181818;stroke-width:1.0;" width="10" x="616.5" y="1471.5547"/><rect fill="none" height="525.3027" style="stroke:#000000;stroke-width:1.5;" width="857.5" x="10" y="213.4199"/><rect fill="none" height="160.5527" style="stroke:#000000;stroke-width:1.5;" width="596.5" x="261" y="237.7305"/><rect fill="none" height="76.6211" style="stroke:#000000;stroke-width:1.5;" width="415" x="261" y="505.8594"/><line style="stroke:#181818;stroke-width:0.5;stroke-dasharray:5.0,5.0;" x1="50" x2="50" y1="81.4883" y2="1548.8652"/><line style="stroke:#181818;stroke-width:0.5;stroke-dasharray:5.0,5.0;" x1="340" x2="340" y1="81.4883" y2="1548.8652"/><line style="stroke:#181818;stroke-width:0.5;stroke-dasharray:5.0,5.0;" x1="621" x2="621" y1="81.4883" y2="1548.8652"/><text fill="#000000" font-family="sans-serif" font-size="14" lengthAdjust="spacing" textLength="55" x="20" y="78.5352">Browser</text><ellipse cx="50.5" cy="13.5" fill="#E2E2F0" rx="8" ry="8" style="stroke:#181818;stroke-width:0.5;"/><path d="M50.5,21.5 L50.5,48.5 M37.5,29.5 L63.5,29.5 M50.5,48.5 L37.5,63.5 M50.5,48.5 L63.5,63.5 " fill="none" style="stroke:#181818;stroke-width:0.5;"/><text fill="#000000" font-family="sans-serif" font-size="14" lengthAdjust="spacing" textLength="55" x="20" y="1561.4004">Browser</text><ellipse cx="50.5" cy="1572.8535" fill="#E2E2F0" rx="8" ry="8" style="stroke:#181818;stroke-width:0.5;"/><path d="M50.5,1580.8535 L50.5,1607.8535 M37.5,1588.8535 L63.5,1588.8535 M50.5,1607.8535 L37.5,1622.8535 M50.5,1607.8535 L63.5,1622.8535 " fill="none" style="stroke:#181818;stroke-width:0.5;"/><rect fill="#E2E2F0" height="30.4883" rx="2.5" ry="2.5" style="stroke:#181818;stroke-width:0.5;" width="139" x="271" y="50"/><text fill="#000000" font-family="sans-serif" font-size="14" lengthAdjust="spacing" textLength="125" x="278" y="70.5352">Application Server</text><rect fill="#E2E2F0" height="30.4883" rx="2.5" ry="2.5" style="stroke:#181818;stroke-width:0.5;" width="139" x="271" y="1547.8652"/><text fill="#000000" font-family="sans-serif" font-size="14" lengthAdjust="spacing" textLength="125" x="278" y="1568.4004">Application Server</text><rect fill="#E2E2F0" height="30.4883" rx="2.5" ry="2.5" style="stroke:#181818;stroke-width:0.5;" width="89" x="577" y="50"/><text fill="#000000" font-family="sans-serif" font-size="14" lengthAdjust="spacing" textLength="75" x="584" y="70.5352">ID Provider</text><rect fill="#E2E2F0" height="30.4883" rx="2.5" ry="2.5" style="stroke:#181818;stroke-width:0.5;" width="89" x="577" y="1547.8652"/><text fill="#000000" font-family="sans-serif" font-size="14" lengthAdjust="spacing" textLength="75" x="584" y="1568.4004">ID Provider</text><rect fill="#DFE2E5" height="370.416" style="stroke:#181818;stroke-width:1.0;" width="10" x="45.5" y="91.4883"/><rect fill="#DFE2E5" height="843.4531" style="stroke:#181818;stroke-width:1.0;" width="10" x="45.5" y="490.8594"/><rect fill="#DFE2E5" height="88.6211" style="stroke:#181818;stroke-width:1.0;" width="10" x="45.5" y="1442.2441"/><rect fill="#DFE2E5" height="305.7949" style="stroke:#181818;stroke-width:1.0;" width="10" x="335.5" y="156.1094"/><rect fill="#DFE2E5" height="204.5527" style="stroke:#181818;stroke-width:1.0;" width="10" x="335.5" y="490.8594"/><rect fill="#DFE2E5" height="372.416" style="stroke:#181818;stroke-width:1.0;" width="10" x="335.5" y="961.8965"/><rect fill="#DFE2E5" height="88.6211" style="stroke:#181818;stroke-width:1.0;" width="10" x="335.5" y="1442.2441"/><rect fill="#DFE2E5" height="71.6211" style="stroke:#181818;stroke-width:1.0;" width="10" x="616.5" y="276.3516"/><rect fill="#DFE2E5" height="30" style="stroke:#181818;stroke-width:1.0;" width="10" x="616.5" y="544.4805"/><rect fill="#DFE2E5" height="106.9316" style="stroke:#181818;stroke-width:1.0;" width="10" x="616.5" y="810.3438"/><rect fill="#DFE2E5" height="113.9316" style="stroke:#181818;stroke-width:1.0;" width="10" x="616.5" y="1106.4492"/><rect fill="#DFE2E5" height="30" style="stroke:#181818;stroke-width:1.0;" width="10" x="616.5" y="1471.5547"/><rect fill="#EEEEEE" height="3" style="stroke:#EEEEEE;stroke-width:1.0;" width="877.5" x="0" y="112.1436"/><line style="stroke:#000000;stroke-width:1.0;" x1="0" x2="877.5" y1="112.1436" y2="112.1436"/><line style="stroke:#000000;stroke-width:1.0;" x1="0" x2="877.5" y1="115.1436" y2="115.1436"/><rect fill="#EEEEEE" height="23.3105" style="stroke:#000000;stroke-width:2.0;" width="178" x="349.75" y="101.4883"/><text fill="#000000" font-family="sans-serif" font-size="13" font-weight="bold" lengthAdjust="spacing" textLength="160" x="355.75" y="118.0566">Authorized Access Flow</text><polygon fill="#181818" points="323.5,152.1094,333.5,156.1094,323.5,160.1094,327.5,156.1094" style="stroke:#181818;stroke-width:1.0;"/><line style="stroke:#181818;stroke-width:1.0;" x1="55.5" x2="329.5" y1="156.1094" y2="156.1094"/><text fill="#000000" font-family="sans-serif" font-size="13" lengthAdjust="spacing" textLength="178" x="62.5" y="151.3672">Authorized resource request</text><line style="stroke:#181818;stroke-width:1.0;" x1="345.5" x2="387.5" y1="185.4199" y2="185.4199"/><line style="stroke:#181818;stroke-width:1.0;" x1="387.5" x2="387.5" y1="185.4199" y2="198.4199"/><line style="stroke:#181818;stroke-width:1.0;" x1="346.5" x2="387.5" y1="198.4199" y2="198.4199"/><polygon fill="#181818" points="356.5,194.4199,346.5,198.4199,356.5,202.4199,352.5,198.4199" style="stroke:#181818;stroke-width:1.0;"/><text fill="#000000" font-family="sans-serif" font-size="13" lengthAdjust="spacing" textLength="129" x="352.5" y="180.6777">Validate session JWT</text><path d="M10,213.4199 L72,213.4199 L72,220.7305 L62,230.7305 L10,230.7305 L10,213.4199 " fill="#EEEEEE" style="stroke:#000000;stroke-width:1.5;"/><rect fill="none" height="525.3027" style="stroke:#000000;stroke-width:1.5;" width="857.5" x="10" y="213.4199"/><text fill="#000000" font-family="sans-serif" font-size="13" font-weight="bold" lengthAdjust="spacing" textLength="17" x="25" y="226.9883">alt</text><text fill="#000000" font-family="sans-serif" font-size="11" font-weight="bold" lengthAdjust="spacing" textLength="82" x="87" y="226.0547">[Session valid]</text><path d="M261,237.7305 L328,237.7305 L328,245.041 L318,255.041 L261,255.041 L261,237.7305 " fill="#EEEEEE" style="stroke:#000000;stroke-width:1.5;"/><rect fill="none" height="160.5527" style="stroke:#000000;stroke-width:1.5;" width="596.5" x="261" y="237.7305"/><text fill="#000000" font-family="sans-serif" font-size="13" font-weight="bold" lengthAdjust="spacing" textLength="22" x="276" y="251.2988">opt</text><text fill="#000000" font-family="sans-serif" font-size="11" font-weight="bold" lengthAdjust="spacing" textLength="127" x="343" y="250.3652">[After refresh interval]</text><polygon fill="#181818" points="604.5,272.3516,614.5,276.3516,604.5,280.3516,608.5,276.3516" style="stroke:#181818;stroke-width:1.0;"/><line style="stroke:#181818;stroke-width:1.0;" x1="345.5" x2="610.5" y1="276.3516" y2="276.3516"/><text fill="#000000" font-family="sans-serif" font-size="13" lengthAdjust="spacing" textLength="175" x="352.5" y="271.6094">Refresh token grant request</text><line style="stroke:#181818;stroke-width:1.0;" x1="626.5" x2="668.5" y1="305.6621" y2="305.6621"/><line style="stroke:#181818;stroke-width:1.0;" x1="668.5" x2="668.5" y1="305.6621" y2="318.6621"/><line style="stroke:#181818;stroke-width:1.0;" x1="627.5" x2="668.5" y1="318.6621" y2="318.6621"/><polygon fill="#181818" points="637.5,314.6621,627.5,318.6621,637.5,322.6621,633.5,318.6621" style="stroke:#181818;stroke-width:1.0;"/><text fill="#000000" font-family="sans-serif" font-size="13" lengthAdjust="spacing" textLength="212" x="633.5" y="300.9199">Check if the user is still signed in</text><polygon fill="#181818" points="356.5,343.9727,346.5,347.9727,356.5,351.9727,352.5,347.9727" style="stroke:#181818;stroke-width:1.0;"/><line style="stroke:#181818;stroke-width:1.0;" x1="350.5" x2="620.5" y1="347.9727" y2="347.9727"/><text fill="#000000" font-family="sans-serif" font-size="13" lengthAdjust="spacing" textLength="247" x="362.5" y="343.2305">New ID token, refresh token (if rotated)</text><line style="stroke:#181818;stroke-width:1.0;" x1="345.5" x2="387.5" y1="377.2832" y2="377.2832"/><line style="stroke:#181818;stroke-width:1.0;" x1="387.5" x2="387.5" y1="377.2832" y2="390.2832"/><line style="stroke:#181818;stroke-width:1.0;" x1="346.5" x2="387.5" y1="390.2832" y2="390.2832"/><polygon fill="#181818" points="356.5,386.2832,346.5,390.2832,356.5,394.2832,352.5,390.2832" style="stroke:#181818;stroke-width:1.0;"/><text fill="#000000" font-family="sans-serif" font-size="13" lengthAdjust="spacing" textLength="163" x="352.5" y="372.541">Generate new session JWT</text><path d="M262,410.2832 L262,435.2832 L418,435.2832 L418,420.2832 L408,410.2832 L262,410.2832 " fill="#FEFFDD" style="stroke:#181818;stroke-width:0.5;"/><path d="M408,410.2832 L408,420.2832 L418,420.2832 L408,410.2832 " fill="#FEFFDD" style="stroke:#181818;stroke-width:0.5;"/><text fill="#000000" font-family="sans-serif" font-size="13" lengthAdjust="spacing" textLength="135" x="268" y="427.8516">Execute custom logic</text><polygon fill="#181818" points="61.5,457.9043,51.5,461.9043,61.5,465.9043,57.5,461.9043" style="stroke:#181818;stroke-width:1.0;"/><line style="stroke:#181818;stroke-width:1.0;" x1="55.5" x2="339.5" y1="461.9043" y2="461.9043"/><text fill="#000000" font-family="sans-serif" font-size="13" lengthAdjust="spacing" textLength="119" x="67.5" y="457.1621">Response contents</text><line style="stroke:#000000;stroke-width:1.0;stroke-dasharray:2.0,2.0;" x1="10" x2="867.5" y1="470.9043" y2="470.9043"/><text fill="#000000" font-family="sans-serif" font-size="11" font-weight="bold" lengthAdjust="spacing" textLength="154" x="15" y="481.5391">[Session invalid or expired]</text><path d="M261,505.8594 L328,505.8594 L328,513.1699 L318,523.1699 L261,523.1699 L261,505.8594 " fill="#EEEEEE" style="stroke:#000000;stroke-width:1.5;"/><rect fill="none" height="76.6211" style="stroke:#000000;stroke-width:1.5;" width="415" x="261" y="505.8594"/><text fill="#000000" font-family="sans-serif" font-size="13" font-weight="bold" lengthAdjust="spacing" textLength="22" x="276" y="519.4277">opt</text><text fill="#000000" font-family="sans-serif" font-size="11" font-weight="bold" lengthAdjust="spacing" textLength="142" x="343" y="518.4941">[After session expiration]</text><polygon fill="#181818" points="604.5,540.4805,614.5,544.4805,604.5,548.4805,608.5,544.4805" style="stroke:#181818;stroke-width:1.0;"/><line style="stroke:#181818;stroke-width:1.0;" x1="345.5" x2="610.5" y1="544.4805" y2="544.4805"/><text fill="#000000" font-family="sans-serif" font-size="13" lengthAdjust="spacing" textLength="184" x="352.5" y="539.7383">Revoke refresh token request</text><line style="stroke:#181818;stroke-width:1.0;" x1="345.5" x2="387.5" y1="610.791" y2="610.791"/><line style="stroke:#181818;stroke-width:1.0;" x1="387.5" x2="387.5" y1="610.791" y2="623.791"/><line style="stroke:#181818;stroke-width:1.0;" x1="346.5" x2="387.5" y1="623.791" y2="623.791"/><polygon fill="#181818" points="356.5,619.791,346.5,623.791,356.5,627.791,352.5,623.791" style="stroke:#181818;stroke-width:1.0;"/><text fill="#000000" font-family="sans-serif" font-size="13" lengthAdjust="spacing" textLength="225" x="352.5" y="606.0488">Generate state, nonce, code_verifier</text><line style="stroke:#181818;stroke-width:1.0;" x1="345.5" x2="387.5" y1="653.1016" y2="653.1016"/><line style="stroke:#181818;stroke-width:1.0;" x1="387.5" x2="387.5" y1="653.1016" y2="666.1016"/><line style="stroke:#181818;stroke-width:1.0;" x1="346.5" x2="387.5" y1="666.1016" y2="666.1016"/><polygon fill="#181818" points="356.5,662.1016,346.5,666.1016,356.5,670.1016,352.5,666.1016" style="stroke:#181818;stroke-width:1.0;"/><text fill="#000000" font-family="sans-serif" font-size="13" lengthAdjust="spacing" textLength="131" x="352.5" y="648.3594">Set secrets to cookie</text><polygon fill="#181818" points="66.5,691.4121,56.5,695.4121,66.5,699.4121,62.5,695.4121" style="stroke:#181818;stroke-width:1.0;"/><line style="stroke:#181818;stroke-width:1.0;" x1="60.5" x2="339.5" y1="695.4121" y2="695.4121"/><text fill="#000000" font-family="sans-serif" font-size="13" lengthAdjust="spacing" textLength="256" x="72.5" y="690.6699">Redirect to IdP's authentication endpoint</text><path d="M60,708.4121 L60,733.4121 L285,733.4121 L285,718.4121 L275,708.4121 L60,708.4121 " fill="#FEFFDD" style="stroke:#181818;stroke-width:0.5;"/><path d="M275,708.4121 L275,718.4121 L285,718.4121 L275,708.4121 " fill="#FEFFDD" style="stroke:#181818;stroke-width:0.5;"/><text fill="#000000" font-family="sans-serif" font-size="13" lengthAdjust="spacing" textLength="204" x="66" y="725.9805">Continue to Authentication Flow</text><rect fill="#EEEEEE" height="3" style="stroke:#EEEEEE;stroke-width:1.0;" width="877.5" x="0" y="766.3779"/><line style="stroke:#000000;stroke-width:1.0;" x1="0" x2="877.5" y1="766.3779" y2="766.3779"/><line style="stroke:#000000;stroke-width:1.0;" x1="0" x2="877.5" y1="769.3779" y2="769.3779"/><rect fill="#EEEEEE" height="23.3105" style="stroke:#000000;stroke-width:2.0;" width="152" x="362.75" y="755.7227"/><text fill="#000000" font-family="sans-serif" font-size="13" font-weight="bold" lengthAdjust="spacing" textLength="134" x="368.75" y="772.291">Authentication Flow</text><polygon fill="#181818" points="604.5,806.3438,614.5,810.3438,604.5,814.3438,608.5,810.3438" style="stroke:#181818;stroke-width:1.0;"/><line style="stroke:#181818;stroke-width:1.0;" x1="55.5" x2="610.5" y1="810.3438" y2="810.3438"/><text fill="#000000" font-family="sans-serif" font-size="13" lengthAdjust="spacing" textLength="338" x="62.5" y="805.6016">Authentication request (state, nonce, code_challenge)</text><path d="M549,823.3438 L549,848.3438 L693,848.3438 L693,833.3438 L683,823.3438 L549,823.3438 " fill="#FEFFDD" style="stroke:#181818;stroke-width:0.5;"/><path d="M683,823.3438 L683,833.3438 L693,833.3438 L683,823.3438 " fill="#FEFFDD" style="stroke:#181818;stroke-width:0.5;"/><text fill="#000000" font-family="sans-serif" font-size="13" lengthAdjust="spacing" textLength="123" x="555" y="840.9121">User authentication</text><line style="stroke:#181818;stroke-width:1.0;" x1="626.5" x2="668.5" y1="874.9648" y2="874.9648"/><line style="stroke:#181818;stroke-width:1.0;" x1="668.5" x2="668.5" y1="874.9648" y2="887.9648"/><line style="stroke:#181818;stroke-width:1.0;" x1="627.5" x2="668.5" y1="887.9648" y2="887.9648"/><polygon fill="#181818" points="637.5,883.9648,627.5,887.9648,637.5,891.9648,633.5,887.9648" style="stroke:#181818;stroke-width:1.0;"/><text fill="#000000" font-family="sans-serif" font-size="13" lengthAdjust="spacing" textLength="179" x="633.5" y="870.2227">Store nonce, code_challenge</text><polygon fill="#181818" points="66.5,913.2754,56.5,917.2754,66.5,921.2754,62.5,917.2754" style="stroke:#181818;stroke-width:1.0;"/><line style="stroke:#181818;stroke-width:1.0;" x1="60.5" x2="620.5" y1="917.2754" y2="917.2754"/><text fill="#000000" font-family="sans-serif" font-size="13" lengthAdjust="spacing" textLength="152" x="72.5" y="912.5332">Redirect to callback URL</text><polygon fill="#181818" points="323.5,957.8965,333.5,961.8965,323.5,965.8965,327.5,961.8965" style="stroke:#181818;stroke-width:1.0;"/><line style="stroke:#181818;stroke-width:1.0;" x1="55.5" x2="329.5" y1="961.8965" y2="961.8965"/><text fill="#000000" font-family="sans-serif" font-size="13" lengthAdjust="spacing" textLength="192" x="62.5" y="941.8438">Autentication callback request</text><text fill="#000000" font-family="sans-serif" font-size="13" lengthAdjust="spacing" textLength="165" x="62.5" y="957.1543">(state, authorization code)</text><line style="stroke:#181818;stroke-width:1.0;" x1="345.5" x2="387.5" y1="1006.5176" y2="1006.5176"/><line style="stroke:#181818;stroke-width:1.0;" x1="387.5" x2="387.5" y1="1006.5176" y2="1019.5176"/><line style="stroke:#181818;stroke-width:1.0;" x1="346.5" x2="387.5" y1="1019.5176" y2="1019.5176"/><polygon fill="#181818" points="356.5,1015.5176,346.5,1019.5176,356.5,1023.5176,352.5,1019.5176" style="stroke:#181818;stroke-width:1.0;"/><text fill="#000000" font-family="sans-serif" font-size="13" lengthAdjust="spacing" textLength="150" x="352.5" y="986.4648">Get secrets from cookie</text><text fill="#000000" font-family="sans-serif" font-size="13" lengthAdjust="spacing" textLength="174" x="352.5" y="1001.7754">(state, nonce, code_verifier)</text><line style="stroke:#181818;stroke-width:1.0;" x1="345.5" x2="387.5" y1="1048.8281" y2="1048.8281"/><line style="stroke:#181818;stroke-width:1.0;" x1="387.5" x2="387.5" y1="1048.8281" y2="1061.8281"/><line style="stroke:#181818;stroke-width:1.0;" x1="346.5" x2="387.5" y1="1061.8281" y2="1061.8281"/><polygon fill="#181818" points="356.5,1057.8281,346.5,1061.8281,356.5,1065.8281,352.5,1061.8281" style="stroke:#181818;stroke-width:1.0;"/><text fill="#000000" font-family="sans-serif" font-size="13" lengthAdjust="spacing" textLength="85" x="352.5" y="1044.0859">Validate state</text><polygon fill="#181818" points="604.5,1102.4492,614.5,1106.4492,604.5,1110.4492,608.5,1106.4492" style="stroke:#181818;stroke-width:1.0;"/><line style="stroke:#181818;stroke-width:1.0;" x1="345.5" x2="610.5" y1="1106.4492" y2="1106.4492"/><text fill="#000000" font-family="sans-serif" font-size="13" lengthAdjust="spacing" textLength="208" x="352.5" y="1086.3965">Authorization code grant request</text><text fill="#000000" font-family="sans-serif" font-size="13" lengthAdjust="spacing" textLength="215" x="352.5" y="1101.707">(code_verifier, authorization code)</text><line style="stroke:#181818;stroke-width:1.0;" x1="626.5" x2="668.5" y1="1135.7598" y2="1135.7598"/><line style="stroke:#181818;stroke-width:1.0;" x1="668.5" x2="668.5" y1="1135.7598" y2="1148.7598"/><line style="stroke:#181818;stroke-width:1.0;" x1="627.5" x2="668.5" y1="1148.7598" y2="1148.7598"/><polygon fill="#181818" points="637.5,1144.7598,627.5,1148.7598,637.5,1152.7598,633.5,1148.7598" style="stroke:#181818;stroke-width:1.0;"/><text fill="#000000" font-family="sans-serif" font-size="13" lengthAdjust="spacing" textLength="135" x="633.5" y="1131.0176">Validate code_verifier</text><line style="stroke:#181818;stroke-width:1.0;" x1="626.5" x2="668.5" y1="1178.0703" y2="1178.0703"/><line style="stroke:#181818;stroke-width:1.0;" x1="668.5" x2="668.5" y1="1178.0703" y2="1191.0703"/><line style="stroke:#181818;stroke-width:1.0;" x1="627.5" x2="668.5" y1="1191.0703" y2="1191.0703"/><polygon fill="#181818" points="637.5,1187.0703,627.5,1191.0703,637.5,1195.0703,633.5,1191.0703" style="stroke:#181818;stroke-width:1.0;"/><text fill="#000000" font-family="sans-serif" font-size="13" lengthAdjust="spacing" textLength="172" x="633.5" y="1173.3281">Validate authorization code</text><polygon fill="#181818" points="356.5,1216.3809,346.5,1220.3809,356.5,1224.3809,352.5,1220.3809" style="stroke:#181818;stroke-width:1.0;"/><line style="stroke:#181818;stroke-width:1.0;" x1="350.5" x2="620.5" y1="1220.3809" y2="1220.3809"/><text fill="#000000" font-family="sans-serif" font-size="13" lengthAdjust="spacing" textLength="192" x="362.5" y="1215.6387">ID token, refresh token, nonce</text><line style="stroke:#181818;stroke-width:1.0;" x1="345.5" x2="387.5" y1="1249.6914" y2="1249.6914"/><line style="stroke:#181818;stroke-width:1.0;" x1="387.5" x2="387.5" y1="1249.6914" y2="1262.6914"/><line style="stroke:#181818;stroke-width:1.0;" x1="346.5" x2="387.5" y1="1262.6914" y2="1262.6914"/><polygon fill="#181818" points="356.5,1258.6914,346.5,1262.6914,356.5,1266.6914,352.5,1262.6914" style="stroke:#181818;stroke-width:1.0;"/><text fill="#000000" font-family="sans-serif" font-size="13" lengthAdjust="spacing" textLength="92" x="352.5" y="1244.9492">Validate nonce</text><line style="stroke:#181818;stroke-width:1.0;" x1="345.5" x2="387.5" y1="1292.002" y2="1292.002"/><line style="stroke:#181818;stroke-width:1.0;" x1="387.5" x2="387.5" y1="1292.002" y2="1305.002"/><line style="stroke:#181818;stroke-width:1.0;" x1="346.5" x2="387.5" y1="1305.002" y2="1305.002"/><polygon fill="#181818" points="356.5,1301.002,346.5,1305.002,356.5,1309.002,352.5,1305.002" style="stroke:#181818;stroke-width:1.0;"/><text fill="#000000" font-family="sans-serif" font-size="13" lengthAdjust="spacing" textLength="134" x="352.5" y="1287.2598">Generate session JWT</text><polygon fill="#181818" points="61.5,1330.3125,51.5,1334.3125,61.5,1338.3125,57.5,1334.3125" style="stroke:#181818;stroke-width:1.0;"/><line style="stroke:#181818;stroke-width:1.0;" x1="55.5" x2="339.5" y1="1334.3125" y2="1334.3125"/><text fill="#000000" font-family="sans-serif" font-size="13" lengthAdjust="spacing" textLength="148" x="67.5" y="1329.5703">Redirect to original URL</text><path d="M55,1347.3125 L55,1372.3125 L304,1372.3125 L304,1357.3125 L294,1347.3125 L55,1347.3125 " fill="#FEFFDD" style="stroke:#181818;stroke-width:0.5;"/><path d="M294,1347.3125 L294,1357.3125 L304,1357.3125 L294,1347.3125 " fill="#FEFFDD" style="stroke:#181818;stroke-width:0.5;"/><text fill="#000000" font-family="sans-serif" font-size="13" lengthAdjust="spacing" textLength="228" x="61" y="1364.8809">Continue to Authorized Access Flow</text><rect fill="#EEEEEE" height="3" style="stroke:#EEEEEE;stroke-width:1.0;" width="877.5" x="0" y="1398.2783"/><line style="stroke:#000000;stroke-width:1.0;" x1="0" x2="877.5" y1="1398.2783" y2="1398.2783"/><line style="stroke:#000000;stroke-width:1.0;" x1="0" x2="877.5" y1="1401.2783" y2="1401.2783"/><rect fill="#EEEEEE" height="23.3105" style="stroke:#000000;stroke-width:2.0;" width="99" x="389.25" y="1387.623"/><text fill="#000000" font-family="sans-serif" font-size="13" font-weight="bold" lengthAdjust="spacing" textLength="81" x="395.25" y="1404.1914">Logout Flow</text><polygon fill="#181818" points="323.5,1438.2441,333.5,1442.2441,323.5,1446.2441,327.5,1442.2441" style="stroke:#181818;stroke-width:1.0;"/><line style="stroke:#181818;stroke-width:1.0;" x1="55.5" x2="329.5" y1="1442.2441" y2="1442.2441"/><text fill="#000000" font-family="sans-serif" font-size="13" lengthAdjust="spacing" textLength="95" x="62.5" y="1437.502">Logout request</text><polygon fill="#181818" points="604.5,1467.5547,614.5,1471.5547,604.5,1475.5547,608.5,1471.5547" style="stroke:#181818;stroke-width:1.0;"/><line style="stroke:#181818;stroke-width:1.0;" x1="345.5" x2="610.5" y1="1471.5547" y2="1471.5547"/><text fill="#000000" font-family="sans-serif" font-size="13" lengthAdjust="spacing" textLength="184" x="352.5" y="1466.8125">Revoke refresh token request</text><polygon fill="#181818" points="61.5,1526.8652,51.5,1530.8652,61.5,1534.8652,57.5,1530.8652" style="stroke:#181818;stroke-width:1.0;"/><line style="stroke:#181818;stroke-width:1.0;" x1="55.5" x2="339.5" y1="1530.8652" y2="1530.8652"/><text fill="#000000" font-family="sans-serif" font-size="13" lengthAdjust="spacing" textLength="130" x="67.5" y="1526.123">Clear session cookie</text><!--SRC=[bLPDRnCn4BtxLupAWKOA5oGkbOAKfXygYb3LKZW0GiOxksl5jHVRcrOW_ZlZ_VvAD_JIx6RcpSoRDwzrEwapRlaZEFoLenO8VnZ0LiQubHhFkTWbrkGwsXXbBBowkBfyU_cE_MLSU7e-j-R9eMK4uQMG6TSUJjPPfgJWNXeDzsZtQ4-0Ew3NvLC_-kO2RgtPowWAkubk6LkjO9txr5Zv6oDO2u7EmPKoJx1QiL1Rxhd7fdpr6zwyRwkSTH4iEfDR6iw6APrl8Tgkcay3cCzSoIY4EceYpFJXooVgGNaQhdon3n746e39FAnZJnWMOogQWjJqH075r-6dLuQ6FOExAjIR7Mf8RA2bxhFEQleDzDGlwNC3iabHx436u5E4F90X7JWlbG8d4qqSI3rCx0pv4P-0Db6qi6oQBpiw9LHhF5MF5Wr4X9Cj7IBn6ZNQ4AofK9V8a8IwP4yR2Z0XkPDv-OmYf_SYTzuyWZA956nKgb908DDbHZkADyIyzeuDkcqNFlYY5XCgogvNAtMnN22jutCcBPQTDeBxcieeGlszEothBQo6xRtinxQggPafQXKNzA9kzhIVmRAE4ix4ykeTp2xG1I4iQLVa5KjYES8V521ZMGrp2E0UFOqdB7f7hLAYsKbySP4HqIry2AOcNplWTC-qqTfQgEFCq7crqh4oIJsOk0NPa0YapZ60hFlfmKqEQoFGKRlG8Acme8xZ5BiOn5LRWDC9jaJAbKATu8Brjj2glq1y2F3zaLdtuE_9Vt4Qk8wRv59Gq4-oTNYusxA140uRQMUs1g0Qyfkkf-ILuLPnrDFYVupskgEGsDAjbnffyQSqjpZ2jqCs6z_FUjHkttofSA_Kp821mEw2clhz6vaC6GEpiKSVyEUAby4kWxBdgIapvs- -OzZprqg3959pLIZioCCS_wLdatSvuTVXJBScCRcVFC_EF5NKw7-06cbEg_EksnF3uBYcYTievAtlLwvuxEZ_0000]--></g></svg>